<?xml version="1.0" encoding="UTF-8" standalone="no"?>
<!DOCTYPE svg PUBLIC "-//W3C//DTD SVG 1.1//EN"
 "http://www.w3.org/Graphics/SVG/1.1/DTD/svg11.dtd">
<!-- Generated by graphviz version 7.0.5 (20221223.1930)
 -->
<!-- Title: workflow Pages: 1 -->
<svg width="387pt" height="322pt"
 viewBox="0.00 0.00 398.00 331.00" xmlns="http://www.w3.org/2000/svg" xmlns:xlink="http://www.w3.org/1999/xlink">
<g id="graph0" class="graph" transform="scale(0.972222 0.972222) rotate(0) translate(4 327)">
<title>workflow</title>
<g id="clust1" class="cluster">
<title>cluster_inputs</title>
<polygon fill="none" stroke="black" stroke-dasharray="5,2" points="8,-260 8,-315 326,-315 326,-260 8,-260"/>
<text text-anchor="middle" x="58" y="-303" font-family="Times,serif" font-size="10.00">Workflow Inputs</text>
</g>
<g id="clust2" class="cluster">
<title>cluster_outputs</title>
<polygon fill="none" stroke="black" stroke-dasharray="5,2" points="107,-8 107,-63 375,-63 375,-8 107,-8"/>
<text text-anchor="middle" x="161" y="-15" font-family="Times,serif" font-size="10.00">Workflow Outputs</text>
</g>
<!-- indexed_sequences -->
<g id="node1" class="node">
<title>indexed_sequences</title>
<polygon fill="#94ddf4" stroke="black" points="16,-268.5 16,-287.5 128,-287.5 128,-268.5 16,-268.5"/>
<text text-anchor="middle" x="72" y="-275.5" font-family="Helvetica,sans-Serif" font-size="10.00">indexed_sequences</text>
</g>
<!-- fetch_aligned_sequences -->
<g id="node6" class="node">
<title>fetch_aligned_sequences</title>
<polygon fill="lightgoldenrodyellow" stroke="black" points="29,-80.5 29,-99.5 281,-99.5 281,-80.5 29,-80.5"/>
<text text-anchor="middle" x="155" y="-87.5" font-family="Helvetica,sans-Serif" font-size="10.00">extract by names from an indexed sequence file</text>
</g>
<!-- indexed_sequences&#45;&gt;fetch_aligned_sequences -->
<g id="edge4" class="edge">
<title>indexed_sequences&#45;&gt;fetch_aligned_sequences</title>
<path fill="none" stroke="black" d="M72,-268.7C72,-258.6 72,-241.05 72,-226 72,-226 72,-226 72,-134 72,-118.66 83.32,-108.79 97.59,-102.43"/>
<polygon fill="black" stroke="black" points="98.25,-104.81 103.87,-99.97 96.46,-100.24 98.25,-104.81"/>
<text text-anchor="middle" x="113" y="-178.1" font-family="Helvetica,sans-Serif" font-size="8.00">indexed_sequences</text>
</g>
<!-- hmmsearch -->
<g id="node7" class="node">
<title>hmmsearch</title>
<polygon fill="lightgoldenrodyellow" stroke="black" points="104.5,-215.5 104.5,-234.5 345.5,-234.5 345.5,-215.5 104.5,-215.5"/>
<text text-anchor="middle" x="225" y="-222.5" font-family="Helvetica,sans-Serif" font-size="10.00">search profile(s) against a sequence database</text>
</g>
<!-- indexed_sequences&#45;&gt;hmmsearch -->
<g id="edge6" class="edge">
<title>indexed_sequences&#45;&gt;hmmsearch</title>
<path fill="none" stroke="black" d="M90.73,-268.52C107.57,-261.11 133.1,-250.41 156,-243 163.15,-240.68 170.81,-238.51 178.33,-236.53"/>
<polygon fill="black" stroke="black" points="178.76,-238.95 184.94,-234.85 177.55,-234.21 178.76,-238.95"/>
<text text-anchor="middle" x="190" y="-245.6" font-family="Helvetica,sans-Serif" font-size="8.00">sequence_query</text>
</g>
<!-- model -->
<g id="node2" class="node">
<title>model</title>
<polygon fill="#94ddf4" stroke="black" points="132.5,-268.5 132.5,-287.5 317.5,-287.5 317.5,-268.5 132.5,-268.5"/>
<text text-anchor="middle" x="225" y="-275.5" font-family="Helvetica,sans-Serif" font-size="10.00">rRNA protein model to search with</text>
</g>
<!-- model&#45;&gt;hmmsearch -->
<g id="edge7" class="edge">
<title>model&#45;&gt;hmmsearch</title>
<path fill="none" stroke="black" d="M225,-268.58C225,-261.52 225,-251.24 225,-242.55"/>
<polygon fill="black" stroke="black" points="227.45,-242.78 225,-235.78 222.55,-242.78 227.45,-242.78"/>
<text text-anchor="middle" x="252.5" y="-245.6" font-family="Helvetica,sans-Serif" font-size="8.00">hmm_profiles</text>
</g>
<!-- matching_sequences -->
<g id="node3" class="node">
<title>matching_sequences</title>
<polygon fill="#94ddf4" stroke="black" points="115.5,-35.5 115.5,-54.5 234.5,-54.5 234.5,-35.5 115.5,-35.5"/>
<text text-anchor="middle" x="175" y="-42.5" font-family="Helvetica,sans-Serif" font-size="10.00">matching_sequences</text>
</g>
<!-- hmmer_search_results -->
<g id="node4" class="node">
<title>hmmer_search_results</title>
<polygon fill="#94ddf4" stroke="black" points="239,-35.5 239,-54.5 367,-54.5 367,-35.5 239,-35.5"/>
<text text-anchor="middle" x="303" y="-42.5" font-family="Helvetica,sans-Serif" font-size="10.00">hmmer_search_results</text>
</g>
<!-- extract_coordinates -->
<g id="node5" class="node">
<title>extract_coordinates</title>
<polygon fill="lightgoldenrodyellow" stroke="black" points="79.5,-125.5 79.5,-144.5 192.5,-144.5 192.5,-125.5 79.5,-125.5"/>
<text text-anchor="middle" x="136" y="-132.5" font-family="Helvetica,sans-Serif" font-size="10.00">extract_coordinates</text>
</g>
<!-- extract_coordinates&#45;&gt;fetch_aligned_sequences -->
<g id="edge3" class="edge">
<title>extract_coordinates&#45;&gt;fetch_aligned_sequences</title>
<path fill="none" stroke="black" d="M136.08,-125.93C136.4,-120.61 137.37,-113.63 140,-108 140.32,-107.31 140.68,-106.63 141.07,-105.97"/>
<polygon fill="black" stroke="black" points="142.9,-107.6 145.1,-100.52 138.96,-104.69 142.9,-107.6"/>
<text text-anchor="middle" x="154" y="-110.6" font-family="Helvetica,sans-Serif" font-size="8.00">names</text>
</g>
<!-- fetch_aligned_sequences&#45;&gt;matching_sequences -->
<g id="edge9" class="edge">
<title>fetch_aligned_sequences&#45;&gt;matching_sequences</title>
<path fill="none" stroke="black" d="M158.86,-80.71C161.35,-75.36 164.67,-68.22 167.65,-61.81"/>
<polygon fill="black" stroke="black" points="169.79,-63.02 170.52,-55.64 165.34,-60.95 169.79,-63.02"/>
</g>
<!-- hmmsearch&#45;&gt;hmmer_search_results -->
<g id="edge10" class="edge">
<title>hmmsearch&#45;&gt;hmmer_search_results</title>
<path fill="none" stroke="black" d="M275.8,-215.58C293.49,-209.49 309,-199.02 309,-181 309,-181 309,-181 309,-89 309,-80.13 307.73,-70.32 306.36,-62.32"/>
<polygon fill="black" stroke="black" points="308.81,-62.11 305.11,-55.68 304,-63.02 308.81,-62.11"/>
</g>
<!-- extract_coord_lines -->
<g id="node8" class="node">
<title>extract_coord_lines</title>
<polygon fill="lightgoldenrodyellow" stroke="black" points="161,-170.5 161,-189.5 273,-189.5 273,-170.5 161,-170.5"/>
<text text-anchor="middle" x="217" y="-177.5" font-family="Helvetica,sans-Serif" font-size="10.00">extract_coord_lines</text>
</g>
<!-- hmmsearch&#45;&gt;extract_coord_lines -->
<g id="edge8" class="edge">
<title>hmmsearch&#45;&gt;extract_coord_lines</title>
<path fill="none" stroke="black" d="M223.46,-215.71C222.48,-210.47 221.19,-203.53 220.02,-197.24"/>
<polygon fill="black" stroke="black" points="222.5,-197.19 218.81,-190.75 217.69,-198.08 222.5,-197.19"/>
<text text-anchor="middle" x="240" y="-200.6" font-family="Helvetica,sans-Serif" font-size="8.00">summary</text>
</g>
<!-- extract_coord_lines&#45;&gt;extract_coordinates -->
<g id="edge1" class="edge">
<title>extract_coord_lines&#45;&gt;extract_coordinates</title>
<path fill="none" stroke="black" d="M201,-170.5C189.13,-164.2 172.76,-155.51 159.42,-148.43"/>
<polygon fill="black" stroke="black" points="160.64,-146.31 153.31,-145.19 158.34,-150.63 160.64,-146.31"/>
<text text-anchor="middle" x="217" y="-155.6" font-family="Helvetica,sans-Serif" font-size="8.00">coordinate_lines</text>
</g>
<!-- default1 -->
<g id="node9" class="node">
<title>default1</title>
<polygon fill="#d5aefc" stroke="black" points="197,-125.5 197,-144.5 233,-144.5 233,-125.5 197,-125.5"/>
<text text-anchor="middle" x="215" y="-132.5" font-family="Helvetica,sans-Serif" font-size="10.00">true</text>
</g>
<!-- default1&#45;&gt;fetch_aligned_sequences -->
<g id="edge2" class="edge">
<title>default1&#45;&gt;fetch_aligned_sequences</title>
<path fill="none" stroke="black" d="M197.39,-126.54C188.35,-122.64 178.85,-118.39 177,-117 172.76,-113.81 168.79,-109.67 165.42,-105.63"/>
<polygon fill="black" stroke="black" points="167.53,-104.35 161.31,-100.31 163.66,-107.35 167.53,-104.35"/>
<text text-anchor="middle" x="241" y="-110.6" font-family="Helvetica,sans-Serif" font-size="8.00">names_contain_subseq_coords</text>
</g>
<!-- default2 -->
<g id="node10" class="node">
<title>default2</title>
<polygon fill="#d5aefc" stroke="black" points="334,-268.5 334,-287.5 390,-287.5 390,-268.5 334,-268.5"/>
<text text-anchor="middle" x="362" y="-275.5" font-family="Helvetica,sans-Serif" font-size="10.00">&quot;1.0E&#45;5&quot;</text>
</g>
<!-- default2&#45;&gt;hmmsearch -->
<g id="edge5" class="edge">
<title>default2&#45;&gt;hmmsearch</title>
<path fill="none" stroke="black" d="M345.42,-268.53C339.65,-265.7 333.09,-262.6 327,-260 306.12,-251.09 282.05,-242.98 262.55,-236.91"/>
<polygon fill="black" stroke="black" points="263.34,-234.59 255.93,-234.88 261.91,-239.28 263.34,-234.59"/>
<text text-anchor="middle" x="329.5" y="-245.6" font-family="Helvetica,sans-Serif" font-size="8.00">e_threshold</text>
</g>
</g>
</svg>
