<?xml version="1.0" encoding="UTF-8" standalone="no"?>
<!DOCTYPE svg PUBLIC "-//W3C//DTD SVG 1.1//EN"
 "http://www.w3.org/Graphics/SVG/1.1/DTD/svg11.dtd">
<!-- Generated by graphviz version 7.0.5 (20221223.1930)
 -->
<!-- Title: workflow Pages: 1 -->
<svg width="708pt" height="223pt"
 viewBox="0.00 0.00 728.00 229.50" xmlns="http://www.w3.org/2000/svg" xmlns:xlink="http://www.w3.org/1999/xlink">
<g id="graph0" class="graph" transform="scale(0.972222 0.972222) rotate(0) translate(4 225.5)">
<title>workflow</title>
<g id="clust1" class="cluster">
<title>cluster_inputs</title>
<polygon fill="none" stroke="black" stroke-dasharray="5,2" points="8,-90 8,-164 680,-164 680,-90 8,-90"/>
<text text-anchor="middle" x="58" y="-152" font-family="Times,serif" font-size="10.00">Workflow Inputs</text>
</g>
<!-- train_svhn -->
<g id="node1" class="node">
<title>train_svhn</title>
<polygon fill="#94ddf4" stroke="black" points="16,-98.5 16,-117.5 84,-117.5 84,-98.5 16,-98.5"/>
<text text-anchor="middle" x="50" y="-105.5" font-family="Helvetica,sans-Serif" font-size="10.00">train_svhn</text>
</g>
<!-- loop -->
<g id="node9" class="node">
<title>loop</title>
<polygon fill="#f3cea1" stroke="black" points="312,-45.5 312,-64.5 350,-64.5 350,-45.5 312,-45.5"/>
<text text-anchor="middle" x="331" y="-52.5" font-family="Helvetica,sans-Serif" font-size="10.00">loop</text>
</g>
<!-- train_svhn&#45;&gt;loop -->
<g id="edge8" class="edge">
<title>train_svhn&#45;&gt;loop</title>
<path fill="none" stroke="black" d="M62.31,-98.62C74.92,-90.51 95.42,-78.64 115,-73 149.7,-63.01 253.82,-58.44 303.74,-56.78"/>
<polygon fill="black" stroke="black" points="303.68,-59.24 310.6,-56.56 303.53,-54.34 303.68,-59.24"/>
<text text-anchor="middle" x="136.5" y="-75.6" font-family="Helvetica,sans-Serif" font-size="8.00">train_svhn</text>
</g>
<!-- eval_svhn -->
<g id="node10" class="node">
<title>eval_svhn</title>
<polygon fill="lightgoldenrodyellow" stroke="black" points="96,-0.5 96,-19.5 162,-19.5 162,-0.5 96,-0.5"/>
<text text-anchor="middle" x="129" y="-7.5" font-family="Helvetica,sans-Serif" font-size="10.00">eval_svhn</text>
</g>
<!-- train_svhn&#45;&gt;eval_svhn -->
<g id="edge9" class="edge">
<title>train_svhn&#45;&gt;eval_svhn</title>
<path fill="none" stroke="black" d="M52.87,-98.64C57.51,-86 67.62,-61.71 82,-45 89.08,-36.77 98.53,-29.44 107.11,-23.71"/>
<polygon fill="black" stroke="black" points="108.17,-25.94 112.75,-20.11 105.53,-21.81 108.17,-25.94"/>
<text text-anchor="middle" x="105" y="-53.1" font-family="Helvetica,sans-Serif" font-size="8.00">train_script</text>
</g>
<!-- init_script -->
<g id="node2" class="node">
<title>init_script</title>
<polygon fill="#94ddf4" stroke="black" points="516.5,-98.5 516.5,-117.5 581.5,-117.5 581.5,-98.5 516.5,-98.5"/>
<text text-anchor="middle" x="549" y="-105.5" font-family="Helvetica,sans-Serif" font-size="10.00">init_script</text>
</g>
<!-- init -->
<g id="node11" class="node">
<title>init</title>
<polygon fill="lightgoldenrodyellow" stroke="black" points="688,-98.5 688,-117.5 720,-117.5 720,-98.5 688,-98.5"/>
<text text-anchor="middle" x="704" y="-105.5" font-family="Helvetica,sans-Serif" font-size="10.00">init</text>
</g>
<!-- init_script&#45;&gt;init -->
<g id="edge12" class="edge">
<title>init_script&#45;&gt;init</title>
<path fill="none" stroke="black" d="M552,-117.13C556.82,-130.12 567.67,-153.46 586,-163.25 623.25,-183.13 645.87,-186.68 681,-163.25 693.5,-154.91 699.22,-138.36 701.83,-125.54"/>
<polygon fill="black" stroke="black" points="704.2,-126.2 702.93,-118.9 699.37,-125.4 704.2,-126.2"/>
<text text-anchor="middle" x="634" y="-174.6" font-family="Helvetica,sans-Serif" font-size="8.00">init_script</text>
</g>
<!-- aggregate_script -->
<g id="node3" class="node">
<title>aggregate_script</title>
<polygon fill="#94ddf4" stroke="black" points="338,-98.5 338,-117.5 436,-117.5 436,-98.5 338,-98.5"/>
<text text-anchor="middle" x="387" y="-105.5" font-family="Helvetica,sans-Serif" font-size="10.00">aggregate_script</text>
</g>
<!-- aggregate_script&#45;&gt;loop -->
<g id="edge1" class="edge">
<title>aggregate_script&#45;&gt;loop</title>
<path fill="none" stroke="black" d="M374.63,-98.52C368.23,-93.92 360.43,-87.96 354,-82 350.15,-78.43 346.26,-74.28 342.79,-70.36"/>
<polygon fill="black" stroke="black" points="344.85,-68.99 338.44,-65.26 341.13,-72.18 344.85,-68.99"/>
<text text-anchor="middle" x="389" y="-75.6" font-family="Helvetica,sans-Serif" font-size="8.00">aggregate_script</text>
</g>
<!-- train_mnist -->
<g id="node4" class="node">
<title>train_mnist</title>
<polygon fill="#94ddf4" stroke="black" points="440,-98.5 440,-117.5 512,-117.5 512,-98.5 440,-98.5"/>
<text text-anchor="middle" x="476" y="-105.5" font-family="Helvetica,sans-Serif" font-size="10.00">train_mnist</text>
</g>
<!-- train_mnist&#45;&gt;loop -->
<g id="edge2" class="edge">
<title>train_mnist&#45;&gt;loop</title>
<path fill="none" stroke="black" d="M460.61,-98.63C452.29,-93.96 441.93,-87.91 433,-82 427.44,-78.32 427.1,-75.69 421,-73 400.81,-64.1 376.07,-59.86 357.64,-57.83"/>
<polygon fill="black" stroke="black" points="358.37,-55.44 351.16,-57.2 357.89,-60.32 358.37,-55.44"/>
<text text-anchor="middle" x="456" y="-75.6" font-family="Helvetica,sans-Serif" font-size="8.00">train_mnist</text>
</g>
<!-- eval_mnist -->
<g id="node12" class="node">
<title>eval_mnist</title>
<polygon fill="lightgoldenrodyellow" stroke="black" points="514.5,-0.5 514.5,-19.5 585.5,-19.5 585.5,-0.5 514.5,-0.5"/>
<text text-anchor="middle" x="550" y="-7.5" font-family="Helvetica,sans-Serif" font-size="10.00">eval_mnist</text>
</g>
<!-- train_mnist&#45;&gt;eval_mnist -->
<g id="edge15" class="edge">
<title>train_mnist&#45;&gt;eval_mnist</title>
<path fill="none" stroke="black" d="M494.55,-98.6C501.24,-95.7 508.9,-92.55 516,-90 527.78,-85.77 535.03,-91.65 543,-82 555.53,-66.83 555.21,-43.16 553.16,-27.37"/>
<polygon fill="black" stroke="black" points="555.6,-27.13 552.07,-20.6 550.76,-27.9 555.6,-27.13"/>
<text text-anchor="middle" x="577" y="-53.1" font-family="Helvetica,sans-Serif" font-size="8.00">train_script</text>
</g>
<!-- epochs_per_round -->
<g id="node5" class="node">
<title>epochs_per_round</title>
<polygon fill="#94ddf4" stroke="black" points="174.5,-98.5 174.5,-117.5 279.5,-117.5 279.5,-98.5 174.5,-98.5"/>
<text text-anchor="middle" x="227" y="-105.5" font-family="Helvetica,sans-Serif" font-size="10.00">epochs_per_round</text>
</g>
<!-- epochs_per_round&#45;&gt;loop -->
<g id="edge3" class="edge">
<title>epochs_per_round&#45;&gt;loop</title>
<path fill="none" stroke="black" d="M226.83,-98.74C227.14,-90.96 228.91,-79.54 236,-73 245.7,-64.06 279.4,-59.69 303.91,-57.64"/>
<polygon fill="black" stroke="black" points="303.84,-60.11 310.63,-57.13 303.47,-55.22 303.84,-60.11"/>
<text text-anchor="middle" x="274" y="-75.6" font-family="Helvetica,sans-Serif" font-size="8.00">epochs_per_round</text>
</g>
<!-- svhn_dataset -->
<g id="node6" class="node">
<title>svhn_dataset</title>
<polygon fill="#94ddf4" stroke="black" points="88,-98.5 88,-117.5 170,-117.5 170,-98.5 88,-98.5"/>
<text text-anchor="middle" x="129" y="-105.5" font-family="Helvetica,sans-Serif" font-size="10.00">svhn_dataset</text>
</g>
<!-- svhn_dataset&#45;&gt;loop -->
<g id="edge5" class="edge">
<title>svhn_dataset&#45;&gt;loop</title>
<path fill="none" stroke="black" d="M137.31,-98.68C145.93,-90.62 160.2,-78.78 175,-73 197.82,-64.08 265.6,-59.3 303.89,-57.25"/>
<polygon fill="black" stroke="black" points="303.66,-59.71 310.52,-56.91 303.41,-54.82 303.66,-59.71"/>
<text text-anchor="middle" x="202.5" y="-75.6" font-family="Helvetica,sans-Serif" font-size="8.00">svhn_dataset</text>
</g>
<!-- svhn_dataset&#45;&gt;eval_svhn -->
<g id="edge10" class="edge">
<title>svhn_dataset&#45;&gt;eval_svhn</title>
<path fill="none" stroke="black" d="M129,-98.82C129,-83.17 129,-48.71 129,-27.91"/>
<polygon fill="black" stroke="black" points="131.45,-27.95 129,-20.95 126.55,-27.95 131.45,-27.95"/>
<text text-anchor="middle" x="145" y="-53.1" font-family="Helvetica,sans-Serif" font-size="8.00">dataset</text>
</g>
<!-- mnist_dataset -->
<g id="node7" class="node">
<title>mnist_dataset</title>
<polygon fill="#94ddf4" stroke="black" points="586,-98.5 586,-117.5 672,-117.5 672,-98.5 586,-98.5"/>
<text text-anchor="middle" x="629" y="-105.5" font-family="Helvetica,sans-Serif" font-size="10.00">mnist_dataset</text>
</g>
<!-- mnist_dataset&#45;&gt;loop -->
<g id="edge7" class="edge">
<title>mnist_dataset&#45;&gt;loop</title>
<path fill="none" stroke="black" d="M608.21,-98.53C600.13,-95.49 590.74,-92.26 582,-90 502.21,-69.37 404.72,-60.72 358.21,-57.57"/>
<polygon fill="black" stroke="black" points="358.52,-55.14 351.38,-57.13 358.21,-60.03 358.52,-55.14"/>
<text text-anchor="middle" x="570" y="-75.6" font-family="Helvetica,sans-Serif" font-size="8.00">mnist_dataset</text>
</g>
<!-- mnist_dataset&#45;&gt;eval_mnist -->
<g id="edge13" class="edge">
<title>mnist_dataset&#45;&gt;eval_mnist</title>
<path fill="none" stroke="black" d="M626.82,-98.56C623.19,-85.81 614.91,-61.39 601,-45 593.72,-36.42 583.76,-29.13 574.56,-23.52"/>
<polygon fill="black" stroke="black" points="576.02,-21.53 568.73,-20.15 573.57,-25.78 576.02,-21.53"/>
<text text-anchor="middle" x="629" y="-53.1" font-family="Helvetica,sans-Serif" font-size="8.00">dataset</text>
</g>
<!-- rounds -->
<g id="node8" class="node">
<title>rounds</title>
<polygon fill="#94ddf4" stroke="black" points="284,-98.5 284,-117.5 334,-117.5 334,-98.5 284,-98.5"/>
<text text-anchor="middle" x="309" y="-105.5" font-family="Helvetica,sans-Serif" font-size="10.00">rounds</text>
</g>
<!-- rounds&#45;&gt;loop -->
<g id="edge6" class="edge">
<title>rounds&#45;&gt;loop</title>
<path fill="none" stroke="black" d="M309.5,-98.78C310.21,-91.65 311.91,-81.2 316,-73 316.34,-72.32 316.71,-71.65 317.11,-70.99"/>
<polygon fill="black" stroke="black" points="318.94,-72.63 321.19,-65.56 315.02,-69.68 318.94,-72.63"/>
<text text-anchor="middle" x="330.5" y="-75.6" font-family="Helvetica,sans-Serif" font-size="8.00">rounds</text>
</g>
<!-- loop&#45;&gt;eval_svhn -->
<g id="edge11" class="edge">
<title>loop&#45;&gt;eval_svhn</title>
<path fill="none" stroke="black" d="M312.36,-50.03C280.15,-43.18 213.38,-28.96 169.92,-19.71"/>
<polygon fill="black" stroke="black" points="170.66,-17.36 163.3,-18.3 169.64,-22.16 170.66,-17.36"/>
<text text-anchor="middle" x="274.5" y="-30.6" font-family="Helvetica,sans-Serif" font-size="8.00">input_model</text>
</g>
<!-- loop&#45;&gt;eval_mnist -->
<g id="edge14" class="edge">
<title>loop&#45;&gt;eval_mnist</title>
<path fill="none" stroke="black" d="M349.67,-50.33C384.12,-43.57 458.5,-28.97 506.3,-19.58"/>
<polygon fill="black" stroke="black" points="506.72,-21.99 513.12,-18.24 505.78,-17.19 506.72,-21.99"/>
<text text-anchor="middle" x="486.5" y="-30.6" font-family="Helvetica,sans-Serif" font-size="8.00">input_model</text>
</g>
<!-- init&#45;&gt;loop -->
<g id="edge4" class="edge">
<title>init&#45;&gt;loop</title>
<path fill="none" stroke="black" d="M694.73,-98.72C690.75,-95.56 685.89,-92.19 681,-90 647.44,-74.94 636.45,-77.95 600,-73 512.04,-61.05 406.74,-57.48 358.09,-56.43"/>
<polygon fill="black" stroke="black" points="358.24,-53.98 351.19,-56.29 358.14,-58.88 358.24,-53.98"/>
<text text-anchor="middle" x="685.5" y="-75.6" font-family="Helvetica,sans-Serif" font-size="8.00">input_model</text>
</g>
</g>
</svg>
